<?xml version="1.0" encoding="iso-8859-1"?>
<!-- Generator: Adobe Illustrator 19.0.0, SVG Export Plug-In . SVG Version: 6.00 Build 0)  -->
<svg version="1.1" id="Capa_1" xmlns="http://www.w3.org/2000/svg" xmlns:xlink="http://www.w3.org/1999/xlink" x="0px" y="0px"
	 viewBox="0 0 512 512" style="enable-background:new 0 0 512 512;" xml:space="preserve">
<g>
	<g>
		<path d="M104.875,167.394H15.198C6.805,167.394,0,174.199,0,182.592V486.91c0,8.393,6.805,15.198,15.198,15.198h89.678
			c8.393,0,15.198-6.805,15.198-15.198V182.592C120.073,174.199,113.269,167.394,104.875,167.394z"/>
	</g>
</g>
<g>
	<g>
		<path d="M474.77,216.34c-26.278-32.02-63.182-48.945-106.721-48.945c-23.574,0-44.423,4.958-62.316,14.78
			c-0.222-8.2-6.938-14.78-15.192-14.78h-89.678c-8.393,0-15.198,6.805-15.198,15.198V486.91c0,8.393,6.805,15.198,15.198,15.198
			h89.678c8.393,0,15.198-6.805,15.198-15.198V330.562c0-23.762,19.332-43.094,43.093-43.094c23.762,0,43.095,19.332,43.095,43.094
			V486.91c0,8.393,6.805,15.198,15.198,15.198h89.678c8.393,0,15.198-6.805,15.198-15.198V330.562
			C512,286.158,498.778,245.592,474.77,216.34z"/>
	</g>
</g>
<g>
	<g>
		<path d="M60.037,9.892C26.933,9.892,0,36.824,0,69.928s26.933,60.036,60.037,60.036c33.104,0,60.037-26.932,60.037-60.036
			C120.073,36.824,93.141,9.892,60.037,9.892z"/>
	</g>
</g>
<g>
</g>
<g>
</g>
<g>
</g>
<g>
</g>
<g>
</g>
<g>
</g>
<g>
</g>
<g>
</g>
<g>
</g>
<g>
</g>
<g>
</g>
<g>
</g>
<g>
</g>
<g>
</g>
<g>
</g>
</svg>
