<?xml version="1.0" encoding="iso-8859-1"?>
<!-- Generator: Adobe Illustrator 19.0.0, SVG Export Plug-In . SVG Version: 6.00 Build 0)  -->
<svg version="1.1" id="Capa_1" xmlns="http://www.w3.org/2000/svg" xmlns:xlink="http://www.w3.org/1999/xlink" x="0px" y="0px"
	 viewBox="0 0 511.999 511.999" style="enable-background:new 0 0 511.999 511.999;" xml:space="preserve">
<g>
	<g>
		<path d="M509.738,109.538c-3.027-4.924-8.566-7.715-14.332-7.215l-25.53,2.224l24.403-49.193
			c2.906-5.859,1.758-12.918-2.854-17.555c-4.614-4.637-11.666-5.819-17.539-2.943l-64.587,31.631
			c-39.903-21.066-89.756-14.813-124.06,16.436c-28.63,26.08-43.679,66.187-40.873,106.183
			c-74.829-7.5-138.169-50.331-175.623-119.537c-2.485-4.591-7.144-7.594-12.351-7.963c-5.217-0.363-10.243,1.949-13.349,6.146
			c-23.23,31.382-24.86,74.41-6.649,109.809c-5.02-1.268-10.362-2.984-16.286-4.963c-5.075-1.697-10.67-0.61-14.743,2.862
			s-6.031,8.823-5.16,14.104c7.206,43.688,32.682,77.264,72.926,97.138c-5.24,1.825-10.587,3.307-16.024,4.44
			c-5.402,1.126-9.776,5.078-11.441,10.339c-1.665,5.26-0.363,11.01,3.407,15.039c28.981,30.978,70.845,46.225,100.581,53.539
			c-33.81,26.477-70.307,30.908-123.341,29.087c-6.139-0.186-11.795,3.272-14.376,8.837c-2.58,5.566-1.579,12.136,2.544,16.681
			c22.108,24.369,102.654,51.847,187.326,53.907c3.349,0.081,6.765,0.125,10.253,0.125c59.451-0.001,138.022-12.745,194.419-69.142
			c42.687-42.686,69.387-91.827,79.356-146.053c8.052-43.797,2.963-78.869,0.518-95.725c-0.18-1.239-0.372-2.554-0.528-3.704
			l23.881-38.49C512.752,120.672,512.765,114.462,509.738,109.538z"/>
	</g>
</g>
<g>
</g>
<g>
</g>
<g>
</g>
<g>
</g>
<g>
</g>
<g>
</g>
<g>
</g>
<g>
</g>
<g>
</g>
<g>
</g>
<g>
</g>
<g>
</g>
<g>
</g>
<g>
</g>
<g>
</g>
</svg>
